# xmcd CD database file
# Generated: mer jan 7 10:43:18 2004 by KSCD
# 
# Track frame offsets:
#       182
#       14530
#       34557
#       49235
#       65400
#       84167
#       96640
#       118220
#       130240
#       145650
#       165965
#       182817
#       195722
#       208622
#       221320
#       232345
#       244755
#       268875
#
# Disc length: 3589 seconds
#
# Revision: 2
# Processed by: cddbd v1.4PL0 Copyright (c) Steve Scherf et al.
# Submitted via: Kscd 1.3.3
#
DISCID=090e0312
DTITLE=Nitty Gritty Dirt Band - Will the Circle be Unbroken [1
DYEAR=1900
DGENRE=
TTITLE0=Grand Ole Opry Song
TTITLE1=Keep On The Sunny Side
TTITLE2=Nashville Blues
TTITLE3=You Are My Flower
TTITLE4=The Precious Jewel
TTITLE5=Dark As A Dungeon
TTITLE6=Tennesse Stud
TTITLE7=Black Mountain Rag
TTITLE8=The Wreck On The Highway
TTITLE9=The End Of The World
TTITLE10=I Saw The Light
TTITLE11=Sunny Side Of The Mountain
TTITLE12=Nine Pound Hammer
TTITLE13=Losin' You (Might Be The Best Thing Yet)
TTITLE14=Honky Tonkin'
TTITLE15=You Don't Know My Mind
TTITLE16=My Walkin' Shoes
TTITLE17=data
EXTD=
EXTT0=
EXTT1=
EXTT2=
EXTT3=
EXTT4=
EXTT5=
EXTT6=
EXTT7=
EXTT8=
EXTT9=
EXTT10=
EXTT11=
EXTT12=
EXTT13=
EXTT14=
EXTT15=
EXTT16=
EXTT17=
PLAYORDER=
